<svg width="101" height="101" viewBox="0 0 101 101" fill="none" xmlns="http://www.w3.org/2000/svg">
<path d="M0.808789 26.8873C0.808789 26.0391 1.14414 25.171 1.79512 24.52C3.09707 23.2181 5.22754 23.2181 6.52949 24.52L51.0918 69.0823L95.0031 25.171C96.3051 23.869 98.4355 23.869 99.7375 25.171C101.039 26.4729 101.039 28.6034 99.7375 29.9054L53.459 76.2036C52.157 77.5056 50.0266 77.5056 48.7246 76.2036L1.79512 29.2741C1.12441 28.6034 0.808789 27.7553 0.808789 26.8873Z" fill="#7037AD"/>
<g clip-path="url(#clip0_14_38)">
<path d="M16.8382 27.1737C16.8382 26.599 17.0654 26.011 17.5064 25.57C18.3883 24.688 19.8316 24.688 20.7135 25.57L50.9009 55.7574L80.6473 26.011C81.5292 25.129 82.9725 25.129 83.8544 26.011C84.7364 26.893 84.7364 28.3362 83.8544 29.2182L52.5045 60.5815C51.6225 61.4635 50.1793 61.4635 49.2973 60.5815L17.5064 28.7905C17.052 28.3362 16.8382 27.7616 16.8382 27.1737Z" fill="#3D3347"/>
</g>
<defs>
<clipPath id="clip0_14_38">
<rect width="68.4194" height="68.4194" fill="white" transform="matrix(1 0 0 -1 16.2903 77.379)"/>
</clipPath>
</defs>
</svg>
